<svg width="24" height="24" viewBox="0 0 24 24" xmlns="http://www.w3.org/2000/svg" fill="currentColor"><path d="M15.457 9.67499L15.314 9.53299C14.6441 8.8886 13.8219 8.42448 12.924 8.18399C10.017 7.40499 7.225 9.05299 6.432 12.014C6.389 12.174 6.366 12.354 6.328 12.805C6.174 14.675 5.734 16.07 4.528 17.485C6.788 18.373 9.466 18.999 11.502 18.999C12.7124 18.9974 13.8886 18.597 14.8485 17.8596C15.8083 17.1223 16.4985 16.0891 16.812 14.92C17.0579 14.003 17.0622 13.0381 16.8246 12.119C16.5869 11.1998 16.1165 10.3579 15.457 9.67499ZM13.288 6.21299L18.227 2.37099C18.4194 2.22174 18.6597 2.14782 18.9027 2.16311C19.1457 2.17839 19.3748 2.28182 19.547 2.45399L22.542 5.44799C22.714 5.62031 22.8173 5.84948 22.8324 6.0925C22.8475 6.33553 22.7734 6.57571 22.624 6.76799L18.784 11.707C19.0548 12.8114 19.071 13.9629 18.8315 15.0745C18.5921 16.1861 18.1031 17.2288 17.4017 18.1237C16.7002 19.0187 15.8046 19.7426 14.7823 20.2407C13.7601 20.7388 12.6381 20.9981 11.501 20.999C8 20.999 3.5 19.497 1 17.997C4.98 14.997 4.047 13.187 4.5 11.497C5.558 7.54699 9.341 5.23899 13.288 6.21299ZM16.7 8.09199C16.7653 8.15533 16.83 8.21966 16.894 8.28499L18.03 9.41999L20.505 6.23799L18.759 4.49199L15.577 6.96699L16.7 8.09199Z"/></svg>