<svg width="28" height="28" viewBox="0 0 28 28" fill="none" xmlns="http://www.w3.org/2000/svg">
<path fill-rule="evenodd" clip-rule="evenodd" d="M25.137 5.96285C25.4651 6.29102 25.6494 6.73606 25.6494 7.2001C25.6494 7.66414 25.4651 8.10918 25.137 8.43735L12.0202 21.5542C11.8468 21.7276 11.641 21.8651 11.4145 21.9589C11.188 22.0528 10.9453 22.1011 10.7001 22.1011C10.4549 22.1011 10.2121 22.0528 9.98564 21.9589C9.75914 21.8651 9.55334 21.7276 9.38 21.5542L2.863 15.0384C2.69586 14.8769 2.56254 14.6838 2.47082 14.4703C2.37911 14.2568 2.33083 14.0272 2.32881 13.7948C2.32679 13.5624 2.37107 13.332 2.45906 13.1169C2.54705 12.9019 2.677 12.7065 2.84131 12.5422C3.00562 12.3778 3.20101 12.2479 3.41608 12.1599C3.63115 12.0719 3.86159 12.0276 4.09395 12.0297C4.32632 12.0317 4.55595 12.08 4.76946 12.1717C4.98296 12.2634 5.17607 12.3967 5.3375 12.5639L10.6995 17.9259L22.6613 5.96285C22.8238 5.80023 23.0168 5.67122 23.2292 5.58321C23.4416 5.49519 23.6693 5.44989 23.8992 5.44989C24.1291 5.44989 24.3567 5.49519 24.5691 5.58321C24.7815 5.67122 24.9745 5.80023 25.137 5.96285Z" fill="#629924"/>
</svg>
