<svg width="16" height="16" viewBox="0 0 16 16" fill="none" xmlns="http://www.w3.org/2000/svg">
<path d="M7.63798 5.38L2.32798 10.953C2.23933 11.046 2.18988 11.1695 2.18988 11.298C2.18988 11.4265 2.23933 11.55 2.32798 11.643L2.33398 11.649C2.37695 11.6942 2.42868 11.7303 2.48601 11.7549C2.54334 11.7795 2.60508 11.7922 2.66748 11.7922C2.72987 11.7922 2.79161 11.7795 2.84894 11.7549C2.90628 11.7303 2.958 11.6942 3.00098 11.649L8.00098 6.401L12.999 11.649C13.0419 11.6942 13.0937 11.7303 13.151 11.7549C13.2083 11.7795 13.2701 11.7922 13.3325 11.7922C13.3949 11.7922 13.4566 11.7795 13.5139 11.7549C13.5713 11.7303 13.623 11.6942 13.666 11.649L13.672 11.643C13.7606 11.55 13.8101 11.4265 13.8101 11.298C13.8101 11.1695 13.7606 11.046 13.672 10.953L8.36198 5.38C8.31528 5.33099 8.25911 5.29197 8.19689 5.26531C8.13466 5.23865 8.06767 5.2249 7.99998 5.2249C7.93228 5.2249 7.86529 5.23865 7.80306 5.26531C7.74084 5.29197 7.68467 5.33099 7.63798 5.38Z" fill="white"/>
</svg>
