<svg width="16" height="16" viewBox="0 0 16 16" fill="none" xmlns="http://www.w3.org/2000/svg">
<path d="M11.3333 3.66667H2.66668C2.03801 3.66667 1.72401 3.66667 1.52868 3.862C1.33334 4.05733 1.33334 4.37133 1.33334 5V9.66667C1.33334 10.924 1.33334 11.552 1.72401 11.9427C2.11468 12.3333 2.74268 12.3333 4.00001 12.3333H8.66668C9.28801 12.3333 9.59868 12.3333 9.84334 12.232C10.0052 12.165 10.1523 12.0667 10.2762 11.9429C10.4001 11.819 10.4983 11.6719 10.5653 11.51C10.6667 11.2653 10.6667 10.9547 10.6667 10.3333H11.3333C12.2174 10.3333 13.0652 9.98215 13.6904 9.35702C14.3155 8.7319 14.6667 7.88406 14.6667 7C14.6667 6.11595 14.3155 5.2681 13.6904 4.64298C13.0652 4.01786 12.2174 3.66667 11.3333 3.66667Z" stroke="white" stroke-linejoin="round"/>
<path d="M11.3334 8.66667H10.6667V5.33334H11.3334C11.7754 5.33334 12.1993 5.50893 12.5119 5.82149C12.8244 6.13405 13 6.55798 13 7C13 7.44203 12.8244 7.86595 12.5119 8.17851C12.1993 8.49107 11.7754 8.66667 11.3334 8.66667Z" stroke="white" stroke-linejoin="round"/>
<path d="M3.72403 6.06667C4.24403 5.53333 5.08869 5.53333 5.60936 6.06667L6.00003 6.468L6.39069 6.068C6.51283 5.9413 6.65926 5.84052 6.82122 5.77168C6.98319 5.70284 7.15737 5.66737 7.33336 5.66737C7.50935 5.66737 7.68353 5.70284 7.84549 5.77168C8.00746 5.84052 8.15389 5.9413 8.27603 6.068C8.79669 6.60133 8.79669 7.46667 8.27603 8.00067L6.00003 10.3333L3.72403 8C3.47344 7.74059 3.33337 7.39401 3.33337 7.03333C3.33337 6.67266 3.47344 6.32608 3.72403 6.06667Z" stroke="white" stroke-linecap="round" stroke-linejoin="round"/>
</svg>
