<?xml version="1.0" encoding="UTF-8" standalone="no"?><!--Created with Inkscape (http://www.inkscape.org/)--><svg width="2110" height="500" viewBox="0 0 558.2708 132.29167" version="1.1" id="svg1" xml:space="preserve" inkscape:version="1.4.2 (ebf0e940d0, 2025-05-08)" sodipodi:docname="lptimer-logo-3-wide.svg" xmlns:inkscape="http://www.inkscape.org/namespaces/inkscape" xmlns:sodipodi="http://sodipodi.sourceforge.net/DTD/sodipodi-0.dtd" xmlns="http://www.w3.org/2000/svg" xmlns:svg="http://www.w3.org/2000/svg" fill="currentColor"><sodipodi:namedview id="namedview1" pagecolor="#ffffff" bordercolor="#000000" borderopacity="0.25" inkscape:showpageshadow="false" inkscape:pageopacity="0.0" inkscape:pagecheckerboard="0" inkscape:deskcolor="#d1d1d1" inkscape:document-units="mm" showborder="false" inkscape:zoom="0.125" inkscape:cx="532" inkscape:cy="980" inkscape:window-width="1366" inkscape:window-height="744" inkscape:window-x="0" inkscape:window-y="0" inkscape:window-maximized="1" inkscape:current-layer="layer1" showguides="true"/><defs id="defs1"/><g inkscape:label="Layer 1" inkscape:groupmode="layer" id="layer1"><path id="path1" d="M 85.673324,8.2832153 C 82.60314,9.3374502 79.659643,10.800096 76.753455,12.935128 68.590983,12.360888 61.248453,12.631073 54.662297,13.595036 l 2.792077,5.527828 c 5.695331,-0.411047 11.631264,-0.02372 17.700729,1.107426 1.63037,-0.951385 3.326323,-1.971973 5.052921,-2.954342 h 5.17e-4 z m 12.310876,5.6125777 -7.172172,11.80083 8.16436,13.681852 4.891172,-3.07113 -7.807274,-14.163477 z M 36.580196,18.64589 c -8.743894,3.843247 -15.451364,9.272214 -20.446814,15.521017 l 5.912301,2.518709 C 27.012829,30.899079 32.78072,26.606362 39.130945,23.696228 Z M 7.4574259,49.804712 C 4.314242,58.548001 3.4120549,67.639317 4.1356649,75.624325 L 9.0025513,74.158264 C 8.4071022,66.770607 9.4767724,59.210089 12.521716,51.962203 Z m 106.4710241,4.756299 -4.28656,2.691308 9.37565,15.71222 6.57789,2.762622 z M 98.933496,82.450264 a 36.617924,36.617924 0 0 1 -2.286165,3.956348 c 5.982459,6.244496 8.882409,10.634881 9.625769,12.077299 0,0 8.01234,-2.136476 13.89683,-7.114294 l -4.04265,-1.698088 c -3.72972,2.999513 -7.86877,3.377055 -7.86877,3.377055 -1.02921,-2.635779 -2.68412,-5.273847 -6.50038,-9.411829 z m -85.668673,8.395354 -4.884456,1.471228 c 4.232124,9.877834 11.094107,17.791694 19.339905,23.618714 l 2.166793,-3.56567 C 22.621439,106.57862 16.897155,99.116194 13.264823,90.845618 Z m 72.43899,30.722152 c -12.310569,4.57076 -26.062203,4.65027 -38.744922,0.20981 l -1.730644,2.84789 c 13.93959,4.48163 29.107365,4.31763 41.587642,-0.87592 z"/><rect id="rect18" width="7.7211442" height="41.511856" x="15.062119" y="-137.49948" ry="11.179299" transform="matrix(-0.57435023,0.81860968,-0.84173676,-0.53988816,0,0)" rx="3.8605721"/><rect id="rect45" width="7.7211442" height="41.511856" x="80.078644" y="-4.6466765" ry="11.179299" transform="matrix(0.90452308,0.42642467,-0.38852512,0.92143813,0,0)" rx="3.8605721"/><ellipse id="path18" cx="66.145836" cy="66.145836" rx="11.217804" ry="10.809159"/><path d="M 145.55498,82.146522 V 51.324998 h 3.88507 V 78.69313 h 13.46823 v 3.453392 z m 24.04425,-31.814375 q 0.86335,0 1.51086,0.604344 0.69068,0.561176 0.69068,1.813031 0,1.208687 -0.69068,1.813031 -0.64751,0.604343 -1.51086,0.604343 -0.94968,0 -1.59719,-0.604343 -0.64751,-0.604344 -0.64751,-1.813031 0,-1.251855 0.64751,-1.813031 0.64751,-0.604344 1.59719,-0.604344 z m 1.8562,8.676648 V 82.146522 H 167.6567 V 59.008795 Z m 16.61942,23.569401 q -3.06488,0 -5.48226,-1.251855 -2.3742,-1.251855 -3.75556,-3.885066 -1.33819,-2.633212 -1.33819,-6.734115 0,-4.273572 1.42452,-6.949951 1.42453,-2.676379 3.8419,-3.928233 2.46055,-1.251855 5.5686,-1.251855 1.76986,0 3.41022,0.388507 1.64036,0.345339 2.67638,0.863348 l -1.16552,3.15122 q -1.03602,-0.388507 -2.41737,-0.733846 -1.38136,-0.345339 -2.59005,-0.345339 -6.82045,0 -6.82045,8.762982 0,4.187238 1.64037,6.431943 1.68352,2.201537 4.96425,2.201537 1.89936,0 3.32389,-0.388506 1.46769,-0.388507 2.67637,-0.949683 v 3.367057 q -1.16551,0.604344 -2.59004,0.906515 -1.38136,0.34534 -3.36706,0.34534 z m 15.23808,-23.612568 q 0,1.726696 -0.21584,3.237555 h 0.259 q 1.12236,-1.769864 3.02172,-2.676379 1.94254,-0.906516 4.18724,-0.906516 4.23041,0 6.34561,2.028868 2.1152,1.985701 2.1152,6.431943 V 82.146522 H 215.2703 V 67.340103 q 0,-5.568594 -5.18009,-5.568594 -3.88507,0 -5.35276,2.201537 -1.42452,2.15837 -1.42452,6.216106 v 11.95737 H 199.5142 V 49.339297 h 3.79873 z m 31.81437,-0.388507 q 2.97855,0 5.09376,1.295022 2.15837,1.295022 3.28072,3.669229 1.16552,2.33104 1.16552,5.48226 v 2.287872 h -15.84244 q 0.0863,3.928233 1.9857,6.000269 1.94254,2.028868 5.39593,2.028868 2.20154,0 3.88506,-0.388507 1.7267,-0.431674 3.53973,-1.208687 v 3.32389 q -1.76986,0.777013 -3.49656,1.122352 -1.72669,0.388507 -4.1009,0.388507 -3.28072,0 -5.8276,-1.33819 -2.50371,-1.338189 -3.92823,-3.971401 -1.38136,-2.676379 -1.38136,-6.518277 0,-3.798731 1.25185,-6.518278 1.29503,-2.719546 3.5829,-4.187237 2.33104,-1.467692 5.39592,-1.467692 z m -0.0432,3.108053 q -2.71955,0 -4.31674,1.769863 -1.55403,1.726696 -1.8562,4.834749 h 11.7847 q -0.0432,-2.935383 -1.38136,-4.748414 -1.33819,-1.856198 -4.2304,-1.856198 z m 30.51931,14.072572 q 0,3.367058 -2.50371,5.093754 -2.50371,1.726696 -6.73411,1.726696 -2.41738,0 -4.18724,-0.388507 -1.7267,-0.388507 -3.06489,-1.079185 v -3.453392 q 1.38136,0.690678 3.32389,1.295022 1.9857,0.561176 4.01457,0.561176 2.89222,0 4.18724,-0.906515 1.29502,-0.949683 1.29502,-2.50371 0,-0.863348 -0.47484,-1.554026 -0.47484,-0.690678 -1.7267,-1.381357 -1.20868,-0.690678 -3.49656,-1.554026 -2.2447,-0.863348 -3.8419,-1.726696 -1.59719,-0.863348 -2.46054,-2.072035 -0.86335,-1.208688 -0.86335,-3.108053 0,-2.935383 2.37421,-4.532577 2.41738,-1.597194 6.30244,-1.597194 2.1152,0 3.92824,0.431674 1.85619,0.388507 3.45339,1.122352 l -1.29502,3.021718 q -1.4677,-0.604343 -3.06489,-1.036017 -1.59719,-0.431674 -3.28072,-0.431674 -2.33104,0 -3.5829,0.777013 -1.20868,0.733846 -1.20868,2.028868 0,0.949683 0.56117,1.640361 0.56118,0.647511 1.8562,1.295022 1.33819,0.604344 3.53973,1.467692 2.20153,0.82018 3.75556,1.683528 1.55403,0.863348 2.37421,2.115203 0.82018,1.208687 0.82018,3.064885 z m 20.67719,0 q 0,3.367058 -2.50371,5.093754 -2.50371,1.726696 -6.73411,1.726696 -2.41738,0 -4.18724,-0.388507 -1.7267,-0.388507 -3.06489,-1.079185 v -3.453392 q 1.38136,0.690678 3.32389,1.295022 1.9857,0.561176 4.01457,0.561176 2.89222,0 4.18724,-0.906515 1.29502,-0.949683 1.29502,-2.50371 0,-0.863348 -0.47484,-1.554026 -0.47484,-0.690678 -1.72669,-1.381357 -1.20869,-0.690678 -3.49656,-1.554026 -2.24471,-0.863348 -3.8419,-1.726696 -1.5972,-0.863348 -2.46054,-2.072035 -0.86335,-1.208688 -0.86335,-3.108053 0,-2.935383 2.3742,-4.532577 2.41738,-1.597194 6.30244,-1.597194 2.11521,0 3.92824,0.431674 1.8562,0.388507 3.45339,1.122352 l -1.29502,3.021718 q -1.46769,-0.604343 -3.06489,-1.036017 -1.59719,-0.431674 -3.28072,-0.431674 -2.33104,0 -3.58289,0.777013 -1.20869,0.733846 -1.20869,2.028868 0,0.949683 0.56117,1.640361 0.56118,0.647511 1.8562,1.295022 1.33819,0.604344 3.53973,1.467692 2.20154,0.82018 3.75556,1.683528 1.55403,0.863348 2.37421,2.115203 0.82018,1.208687 0.82018,3.064885 z m 25.51194,-24.432748 q 6.04344,0 8.80615,2.374207 2.76272,2.374207 2.76272,6.690947 0,2.546876 -1.16552,4.791581 -1.12235,2.201538 -3.8419,3.582894 -2.67638,1.381357 -7.29529,1.381357 h -3.53973 v 12.000538 h -3.88506 V 51.324998 Z m -0.34533,3.32389 h -3.92824 v 12.173206 h 3.10806 q 4.40307,0 6.56144,-1.424524 2.15837,-1.424524 2.15837,-4.834749 0,-2.97855 -1.89937,-4.446242 -1.89936,-1.467691 -6.00026,-1.467691 z m 37.12394,4.359907 v 23.137727 h -3.10805 l -0.56118,-3.064886 h -0.17267 q -1.12235,1.813031 -3.10805,2.676379 -1.9857,0.820181 -4.23041,0.820181 -4.18724,0 -6.30244,-1.985701 -2.1152,-2.028868 -2.1152,-6.431943 V 59.008795 h 3.8419 v 14.892753 q 0,5.525427 5.13692,5.525427 3.8419,0 5.30959,-2.15837 1.51086,-2.15837 1.51086,-6.216105 V 59.008795 Z m 22.27438,23.137727 h -16.92162 v -2.50371 l 12.43221,-17.698634 h -11.69836 v -2.935383 h 15.8856 v 2.849048 l -12.25954,17.353295 h 12.56171 z m 20.28865,0 h -16.92162 v -2.50371 l 12.43222,-17.698634 h -11.69837 v -2.935383 h 15.8856 v 2.849048 l -12.2595,17.353295 h 12.56171 z m 9.15145,0 H 396.4869 V 49.339297 h 3.79873 z m 16.27412,-23.569401 q 2.97855,0 5.09376,1.295022 2.15837,1.295022 3.28072,3.669229 1.16552,2.33104 1.16552,5.48226 v 2.287872 h -15.84244 q 0.0863,3.928233 1.9857,6.000269 1.94254,2.028868 5.39593,2.028868 2.20154,0 3.88506,-0.388507 1.7267,-0.431674 3.53973,-1.208687 v 3.32389 q -1.76986,0.777013 -3.49656,1.122352 -1.72669,0.388507 -4.1009,0.388507 -3.28072,0 -5.8276,-1.33819 -2.50371,-1.338189 -3.92823,-3.971401 -1.38136,-2.676379 -1.38136,-6.518277 0,-3.798731 1.25185,-6.518278 1.29503,-2.719546 3.5829,-4.187237 2.33104,-1.467692 5.39592,-1.467692 z m -0.0432,3.108053 q -2.71955,0 -4.31674,1.769863 -1.55403,1.726696 -1.8562,4.834749 h 11.7847 q -0.0432,-2.935383 -1.38136,-4.748414 -1.33819,-1.856198 -4.2304,-1.856198 z m 36.95127,20.461348 h -3.88507 v -27.4113 h -9.62633 v -3.410224 h 23.09456 v 3.410224 h -9.58316 z m 15.66976,-31.814375 q 0.86335,0 1.51086,0.604344 0.69068,0.561176 0.69068,1.813031 0,1.208687 -0.69068,1.813031 -0.64751,0.604343 -1.51086,0.604343 -0.94969,0 -1.5972,-0.604343 -0.64751,-0.604344 -0.64751,-1.813031 0,-1.251855 0.64751,-1.813031 0.64751,-0.604344 1.5972,-0.604344 z m 1.8562,8.676648 v 23.137727 h -3.79874 V 59.008795 Z m 32.72087,-0.431674 q 3.92824,0 5.87077,2.028868 1.94253,1.9857 1.94253,6.47511 v 15.065423 h -3.75556 V 67.253768 q 0,-5.482259 -4.70525,-5.482259 -3.36706,0 -4.83475,1.942533 -1.42452,1.942533 -1.42452,5.654929 V 82.146522 H 493.0523 V 67.253768 q 0,-5.482259 -4.74841,-5.482259 -3.49656,0 -4.83475,2.15837 -1.33819,2.15837 -1.33819,6.216105 v 12.000538 h -3.79873 V 59.008795 h 3.06489 l 0.56117,3.15122 h 0.21584 q 1.07918,-1.813031 2.89222,-2.676379 1.85619,-0.906515 3.92823,-0.906515 5.43909,0 7.07945,3.885066 h 0.21584 q 1.16552,-1.9857 3.15122,-2.935383 2.02887,-0.949683 4.27357,-0.949683 z m 23.9147,0 q 2.97855,0 5.09376,1.295022 2.15837,1.295022 3.28072,3.669229 1.16552,2.33104 1.16552,5.48226 v 2.287872 h -15.84244 q 0.0863,3.928233 1.9857,6.000269 1.94254,2.028868 5.39593,2.028868 2.20154,0 3.88506,-0.388507 1.7267,-0.431674 3.53973,-1.208687 v 3.32389 q -1.76986,0.777013 -3.49656,1.122352 -1.72669,0.388507 -4.1009,0.388507 -3.28072,0 -5.8276,-1.33819 -2.50371,-1.338189 -3.92823,-3.971401 -1.38136,-2.676379 -1.38136,-6.518277 0,-3.798731 1.25185,-6.518278 1.29503,-2.719546 3.5829,-4.187237 2.33104,-1.467692 5.39592,-1.467692 z m -0.0432,3.108053 q -2.71955,0 -4.31674,1.769863 -1.55403,1.726696 -1.8562,4.834749 h 11.7847 q -0.0432,-2.935383 -1.38136,-4.748414 -1.33819,-1.856198 -4.2304,-1.856198 z m 26.24574,-3.108053 q 0.64751,0 1.38135,0.08633 0.77702,0.04317 1.33819,0.172669 l -0.47484,3.49656 q -0.56117,-0.129502 -1.25185,-0.215837 -0.64751,-0.08633 -1.25186,-0.08633 -1.76986,0 -3.32389,0.99285 -1.55402,0.949683 -2.50371,2.719546 -0.90651,1.726696 -0.90651,4.057736 v 12.345877 h -3.79873 V 59.008795 h 3.10805 l 0.43167,4.230405 h 0.17267 q 1.12236,-1.899365 2.89222,-3.280722 1.76986,-1.381357 4.18724,-1.381357 z" id="text1" aria-label="Lichess Puzzle Timer"/></g></svg>