<svg width="48" height="48" viewBox="0 0 48 48" xmlns="http://www.w3.org/2000/svg" fill="currentColor"><path d="M31.0853 3.00543C29.9713 3.38795 28.9033 3.91864 27.8488 4.69331C24.8872 4.48495 22.2231 4.58299 19.8334 4.93274L20.8464 6.93843C22.9129 6.78929 25.0667 6.92983 27.2689 7.34024C27.8604 6.99505 28.4758 6.62474 29.1022 6.26831L31.0853 3.00543ZM35.5521 5.04187L32.9497 9.32362L35.9121 14.2879L37.6868 13.1736L34.854 8.03456L35.5521 5.04187ZM13.2726 6.76537C10.1 8.15983 7.66627 10.1297 5.85375 12.3969L7.99894 13.3108C9.80119 11.2113 11.894 9.6537 14.1981 8.59781L13.2726 6.76537ZM2.70581 18.0709C1.56536 21.2432 1.23801 24.5419 1.50056 27.4391L3.26644 26.9072C3.05039 24.2267 3.4385 21.4835 4.54331 18.8537L2.70581 18.0709ZM41.3372 19.7966L39.7819 20.7731L43.1837 26.4741L45.5704 27.4764L41.3372 19.7966ZM35.8965 29.9158C35.6502 30.4111 35.3731 30.8905 35.067 31.3513C37.2376 33.617 38.2898 35.21 38.5596 35.7334C38.5596 35.7334 41.4667 34.9582 43.6018 33.1521L42.135 32.5359C40.7817 33.6243 39.2799 33.7612 39.2799 33.7612C38.9065 32.8049 38.306 31.8477 36.9214 30.3463L35.8965 29.9158ZM4.81294 32.9619L3.04069 33.4957C4.57625 37.0798 7.06602 39.9512 10.0579 42.0654L10.8441 40.7717C8.20784 38.6704 6.13088 35.9628 4.81294 32.9619ZM31.0963 44.109C26.6296 45.7674 21.64 45.7963 17.0383 44.1851L16.4104 45.2184C21.4681 46.8445 26.9715 46.785 31.4998 44.9006L31.0963 44.109Z"/><path d="M33.8317 31.512C35.7174 32.7214 37.6062 33.1885 38.0505 32.5552C38.4948 31.9219 37.3264 30.4281 35.4408 29.2186L29.5911 25.4667C27.7055 24.2572 25.8167 23.7902 25.3723 24.4234C24.928 25.0567 26.0964 26.5506 27.9821 27.76L33.8317 31.512Z"/><path d="M27.8943 15.7686C28.7647 13.7044 28.903 11.7636 28.2033 11.4337C27.5035 11.1038 26.2307 12.5097 25.3603 14.574L22.6602 20.9775C21.7899 23.0417 21.6516 24.9825 22.3513 25.3123C23.0511 25.6422 24.3239 24.2363 25.1943 22.1721L27.8943 15.7686Z"/><path d="M24 27.9219C26.2479 27.9219 28.0702 26.166 28.0702 24C28.0702 21.834 26.2479 20.0781 24 20.0781C21.7521 20.0781 19.9298 21.834 19.9298 24C19.9298 26.166 21.7521 27.9219 24 27.9219Z"/></svg>