<svg width="32" height="32" viewBox="0 0 32 32" xmlns="http://www.w3.org/2000/svg" fill="currentColor"><path d="M24 28H6.66667C5.6058 28 4.58839 27.5786 3.83824 26.8284C3.0881 26.0783 2.66667 25.0609 2.66667 24V9.33333C2.66667 8.27246 3.0881 7.25505 3.83824 6.5049C4.58839 5.75476 5.6058 5.33333 6.66667 5.33333H24C25.0609 5.33333 26.0783 5.75476 26.8284 6.5049C27.5786 7.25505 28 8.27246 28 9.33333V24C28 25.0609 27.5786 26.0783 26.8284 26.8284C26.0783 27.5786 25.0609 28 24 28ZM24 26.6667C24.7072 26.6667 25.3855 26.3857 25.8856 25.8856C26.3857 25.3855 26.6667 24.7072 26.6667 24V9.33333C26.6667 8.62608 26.3857 7.94781 25.8856 7.44771C25.3855 6.94761 24.7072 6.66666 24 6.66666H6.66667C5.95942 6.66666 5.28115 6.94761 4.78105 7.44771C4.28095 7.94781 4 8.62608 4 9.33333V24C4 24.7072 4.28095 25.3855 4.78105 25.8856C5.28115 26.3857 5.95942 26.6667 6.66667 26.6667H24ZM17.3333 22.6667H8V13.3333H9.33333V20.3867L18.8667 10.8667L19.8 11.8L10.28 21.3333H17.3333V22.6667Z"/></svg>