<svg width="32" height="32" viewBox="0 0 32 32" fill="none" xmlns="http://www.w3.org/2000/svg">
<path d="M21.3333 25.3333C20.6 25.3333 19.9724 25.0724 19.4507 24.5507C18.9289 24.0289 18.6676 23.4009 18.6667 22.6667V9.33333C18.6667 8.59999 18.928 7.97244 19.4507 7.45066C19.9733 6.92888 20.6009 6.66755 21.3333 6.66666C22.0658 6.66577 22.6938 6.9271 23.2173 7.45066C23.7409 7.97421 24.0018 8.60177 24 9.33333V22.6667C24 23.4 23.7391 24.028 23.2173 24.5507C22.6956 25.0733 22.0676 25.3342 21.3333 25.3333ZM10.6667 25.3333C9.93333 25.3333 9.30578 25.0724 8.784 24.5507C8.26222 24.0289 8.00089 23.4009 8 22.6667V9.33333C8 8.59999 8.26133 7.97244 8.784 7.45066C9.30667 6.92888 9.93422 6.66755 10.6667 6.66666C11.3991 6.66577 12.0271 6.9271 12.5507 7.45066C13.0742 7.97421 13.3351 8.60177 13.3333 9.33333V22.6667C13.3333 23.4 13.0724 24.028 12.5507 24.5507C12.0289 25.0733 11.4009 25.3342 10.6667 25.3333Z" fill="white"/>
</svg>
