<svg width="16" height="16" viewBox="0 0 16 16" xmlns="http://www.w3.org/2000/svg" fill="currentColor"><path d="M6.62 8.66C6.68667 8.66 8.23334 8.72667 9.15334 8.5H9.16C10.22 8.24 11.6933 7.49333 12.0733 5.05333C12.0733 5.05333 12.92 2 8.72 2H5.11334C4.78667 2 4.50667 2.24 4.45334 2.56L2.92 12.2667C2.88667 12.4667 3.04667 12.6533 3.24667 12.6533H5.53334L6.09334 9.10667C6.13334 8.85333 6.35334 8.66 6.62 8.66Z"/><path d="M12.66 5.52666C12.12 8.01333 10.42 9.32666 7.71335 9.32666H6.73335L6.04668 13.6733C6.02001 13.8467 6.15335 14 6.32668 14H7.59335C7.82001 14 8.02001 13.8333 8.05335 13.6067C8.10668 13.34 8.40001 11.3933 8.46001 11.06C8.49335 10.8333 8.69335 10.6667 8.92001 10.6667H9.21335C11.0933 10.6667 12.5667 9.9 13 7.69333C13.1733 6.8 13.08 6.06666 12.66 5.52666Z"/></svg>