<svg width="24" height="24" viewBox="0 0 24 24" xmlns="http://www.w3.org/2000/svg" fill="currentColor"><path fill-rule="evenodd" clip-rule="evenodd" d="M18 9.75C18.5967 9.75 19.169 9.51295 19.591 9.09099C20.0129 8.66903 20.25 8.09674 20.25 7.5C20.25 6.90326 20.0129 6.33097 19.591 5.90901C19.169 5.48705 18.5967 5.25 18 5.25C17.4033 5.25 16.831 5.48705 16.409 5.90901C15.9871 6.33097 15.75 6.90326 15.75 7.5C15.75 8.09674 15.9871 8.66903 16.409 9.09099C16.831 9.51295 17.4033 9.75 18 9.75ZM18 12C18.8416 11.9999 19.6664 11.7638 20.3806 11.3185C21.0947 10.8732 21.6697 10.2365 22.0402 9.48083C22.4107 8.72512 22.5618 7.88066 22.4764 7.04337C22.391 6.20608 22.0725 5.40952 21.557 4.74417C21.0416 4.07882 20.3499 3.57135 19.5606 3.27941C18.7712 2.98746 17.9158 2.92274 17.0914 3.09259C16.2671 3.26245 15.507 3.66007 14.8973 4.2403C14.2876 4.82052 13.8529 5.56009 13.6425 6.375H2.625C2.32663 6.375 2.04048 6.49353 1.82951 6.70451C1.61853 6.91548 1.5 7.20163 1.5 7.5C1.5 7.79837 1.61853 8.08452 1.82951 8.2955C2.04048 8.50647 2.32663 8.625 2.625 8.625H13.6425C13.8919 9.59102 14.4553 10.4468 15.2441 11.0577C16.0329 11.6686 17.0023 12.0001 18 12ZM8.25 16.5C8.25 17.0967 8.01295 17.669 7.59099 18.091C7.16903 18.5129 6.59674 18.75 6 18.75C5.40326 18.75 4.83097 18.5129 4.40901 18.091C3.98705 17.669 3.75 17.0967 3.75 16.5C3.75 15.9033 3.98705 15.331 4.40901 14.909C4.83097 14.4871 5.40326 14.25 6 14.25C6.59674 14.25 7.16903 14.4871 7.59099 14.909C8.01295 15.331 8.25 15.9033 8.25 16.5ZM10.3575 17.625C10.0816 18.6835 9.42978 19.6054 8.52374 20.2183C7.6177 20.8312 6.51947 21.0933 5.43431 20.9554C4.34914 20.8176 3.35129 20.2894 2.62724 19.4694C1.90318 18.6494 1.50248 17.5939 1.5 16.5C1.49963 15.4045 1.89892 14.3464 2.623 13.5243C3.34707 12.7021 4.3462 12.1724 5.43301 12.0343C6.51981 11.8963 7.61965 12.1595 8.52626 12.7745C9.43287 13.3895 10.084 14.3142 10.3575 15.375H21.375C21.6734 15.375 21.9595 15.4935 22.1705 15.7045C22.3815 15.9155 22.5 16.2016 22.5 16.5C22.5 16.7984 22.3815 17.0845 22.1705 17.2955C21.9595 17.5065 21.6734 17.625 21.375 17.625H10.3575Z"/></svg>