<svg width="16" height="16" viewBox="0 0 16 16" fill="none" xmlns="http://www.w3.org/2000/svg">
<path d="M7.21665 14.6667C6.91665 14.6667 6.65843 14.5667 6.44199 14.3667C6.22554 14.1667 6.09488 13.9222 6.04999 13.6333L5.89999 12.5333C5.75554 12.4778 5.61954 12.4111 5.49199 12.3333C5.36443 12.2556 5.23932 12.1722 5.11665 12.0833L4.08332 12.5167C3.80554 12.6389 3.52776 12.65 3.24999 12.55C2.97221 12.45 2.75554 12.2722 2.59999 12.0167L1.81665 10.65C1.6611 10.3944 1.61665 10.1222 1.68332 9.83333C1.74999 9.54444 1.89999 9.30555 2.13332 9.11666L3.01665 8.45C3.00554 8.37222 2.99999 8.29711 2.99999 8.22466V7.77466C2.99999 7.70266 3.00554 7.62778 3.01665 7.55L2.13332 6.88333C1.89999 6.69444 1.74999 6.45555 1.68332 6.16667C1.61665 5.87778 1.6611 5.60555 1.81665 5.35L2.59999 3.98333C2.75554 3.72778 2.97221 3.55 3.24999 3.45C3.52776 3.35 3.80554 3.36111 4.08332 3.48333L5.11665 3.91667C5.23888 3.82778 5.36665 3.74444 5.49999 3.66667C5.63332 3.58889 5.76665 3.52222 5.89999 3.46667L6.04999 2.36667C6.09443 2.07778 6.2251 1.83333 6.44199 1.63333C6.65888 1.43333 6.9171 1.33333 7.21665 1.33333H8.78332C9.08332 1.33333 9.34176 1.43333 9.55865 1.63333C9.77554 1.83333 9.90599 2.07778 9.94999 2.36667L10.1 3.46667C10.2444 3.52222 10.3807 3.58889 10.5087 3.66667C10.6367 3.74444 10.7615 3.82778 10.8833 3.91667L11.9167 3.48333C12.1944 3.36111 12.4722 3.35 12.75 3.45C13.0278 3.55 13.2444 3.72778 13.4 3.98333L14.1833 5.35C14.3389 5.60555 14.3833 5.87778 14.3167 6.16667C14.25 6.45555 14.1 6.69444 13.8667 6.88333L12.9833 7.55C12.9944 7.62778 13 7.70289 13 7.77533V8.22466C13 8.29711 12.9889 8.37222 12.9667 8.45L13.85 9.11666C14.0833 9.30555 14.2333 9.54444 14.3 9.83333C14.3667 10.1222 14.3222 10.3944 14.1667 10.65L13.3667 12.0167C13.2111 12.2722 12.9944 12.45 12.7167 12.55C12.4389 12.65 12.1611 12.6389 11.8833 12.5167L10.8833 12.0833C10.7611 12.1722 10.6333 12.2556 10.5 12.3333C10.3667 12.4111 10.2333 12.4778 10.1 12.5333L9.94999 13.6333C9.90554 13.9222 9.7751 14.1667 9.55865 14.3667C9.34221 14.5667 9.08376 14.6667 8.78332 14.6667H7.21665ZM8.03332 10.3333C8.67776 10.3333 9.22776 10.1056 9.68332 9.65C10.1389 9.19444 10.3667 8.64444 10.3667 8C10.3667 7.35555 10.1389 6.80555 9.68332 6.35C9.22776 5.89444 8.67776 5.66667 8.03332 5.66667C7.37776 5.66667 6.82488 5.89444 6.37465 6.35C5.92443 6.80555 5.69954 7.35555 5.69999 8C5.70043 8.64444 5.92554 9.19444 6.37532 9.65C6.8251 10.1056 7.37776 10.3333 8.03332 10.3333Z" fill="white"/>
</svg>
